<?xml version="1.0" encoding="utf-8"?>
<!-- Generator: Adobe Illustrator 27.8.1, SVG Export Plug-In . SVG Version: 6.00 Build 0)  -->
<svg version="1.1" id="Layer_1" xmlns="http://www.w3.org/2000/svg" xmlns:xlink="http://www.w3.org/1999/xlink" x="0px" y="0px"
	 viewBox="0 0 5.33 5.2" style="enable-background:new 0 0 5.33 5.2;" xml:space="preserve">
<style type="text/css">
	.st0{fill:#FFFFFF;}
</style>
<path class="st0" d="M5.33,2.74c0,0.01,0,0.02,0,0.03c-0.01,0.38-0.1,0.74-0.27,1.08C4.81,4.33,4.46,4.71,3.99,4.98
	c-0.15,0.09-0.3,0.16-0.47,0.21C3.5,5.2,3.47,5.2,3.43,5.2c-0.06-0.01-0.1-0.06-0.1-0.12c0-0.01,0-0.02,0-0.02c0-0.24,0-0.47,0-0.71
	c0-0.09-0.01-0.17-0.03-0.25C3.28,4,3.23,3.91,3.16,3.85c0,0,0,0,0-0.01c0.01,0,0.01,0,0.01,0c0.17-0.02,0.33-0.05,0.49-0.11
	c0.15-0.06,0.28-0.14,0.39-0.25c0.11-0.11,0.18-0.25,0.23-0.4c0.04-0.11,0.06-0.22,0.07-0.33C4.37,2.67,4.37,2.59,4.37,2.5
	c0-0.26-0.09-0.49-0.26-0.68C4.1,1.81,4.1,1.8,4.1,1.79c0.04-0.12,0.05-0.24,0.04-0.37c-0.01-0.1-0.03-0.2-0.07-0.3
	C4.07,1.11,4.06,1.1,4.05,1.1c-0.06-0.01-0.12,0-0.17,0.02C3.76,1.14,3.65,1.19,3.55,1.25C3.48,1.28,3.42,1.32,3.36,1.36
	C3.34,1.37,3.33,1.37,3.31,1.37C3.19,1.34,3.07,1.31,2.94,1.3C2.79,1.28,2.64,1.28,2.5,1.29C2.34,1.3,2.18,1.33,2.02,1.37
	c-0.01,0-0.02,0-0.03-0.01c-0.1-0.07-0.2-0.13-0.31-0.18C1.6,1.15,1.51,1.12,1.42,1.11C1.38,1.1,1.34,1.09,1.29,1.1
	c-0.01,0-0.02,0.01-0.03,0.02c-0.06,0.15-0.08,0.3-0.07,0.46C1.2,1.65,1.21,1.72,1.24,1.79c0,0.01,0,0.02-0.01,0.03
	C1.11,1.96,1.03,2.13,0.99,2.32C0.98,2.38,0.97,2.44,0.97,2.5c0,0.14,0.01,0.27,0.03,0.41c0.03,0.16,0.09,0.32,0.19,0.46
	c0.1,0.14,0.23,0.24,0.38,0.32c0.12,0.06,0.24,0.1,0.36,0.12c0.08,0.02,0.16,0.03,0.24,0.04c0,0,0.01,0,0.01,0c0,0,0,0.01,0,0.01
	C2.1,3.92,2.06,4.01,2.03,4.11C2.03,4.14,2.02,4.16,2.02,4.18C2.02,4.19,2.01,4.2,2,4.2C1.91,4.24,1.81,4.27,1.71,4.27
	c-0.16,0-0.3-0.07-0.4-0.19C1.28,4.05,1.26,4.01,1.24,3.98C1.2,3.91,1.14,3.85,1.08,3.8C1.02,3.75,0.96,3.72,0.88,3.71
	C0.84,3.7,0.8,3.7,0.76,3.71c-0.01,0-0.02,0.01-0.03,0.01C0.71,3.73,0.7,3.75,0.71,3.77C0.72,3.79,0.73,3.8,0.74,3.81
	c0.02,0.03,0.05,0.05,0.08,0.06c0.03,0.02,0.06,0.04,0.09,0.07c0.08,0.09,0.15,0.2,0.2,0.32c0.06,0.15,0.16,0.24,0.3,0.3
	c0.07,0.02,0.13,0.04,0.2,0.04c0.12,0.01,0.25,0,0.37-0.02c0,0,0.01,0,0.02,0c0,0.01,0,0.01,0,0.02C2,4.74,2,4.9,2,5.06
	c0,0.02,0,0.03-0.01,0.05C1.99,5.16,1.94,5.19,1.89,5.2c-0.03,0-0.06,0-0.09-0.01C1.13,4.96,0.59,4.47,0.27,3.84
	C0.16,3.62,0.09,3.38,0.04,3.14C0.02,3.01,0.01,2.88,0,2.76C0,2.63,0,2.5,0.02,2.37c0.06-0.55,0.27-1.03,0.64-1.45
	c0.31-0.35,0.68-0.61,1.12-0.77C1.93,0.1,2.09,0.06,2.25,0.03C2.35,0.02,2.45,0.01,2.56,0c0.01,0,0.01,0,0.02,0
	c0.06,0,0.11,0,0.17,0c0.01,0,0.01,0,0.02,0c0.07,0.01,0.14,0.01,0.22,0.02c0.15,0.02,0.3,0.05,0.45,0.09
	c0.63,0.2,1.13,0.57,1.48,1.13c0.25,0.4,0.39,0.84,0.4,1.31c0,0.01,0,0.02,0,0.03C5.33,2.64,5.33,2.69,5.33,2.74z"/>
</svg>
