<?xml version="1.0" encoding="utf-8"?>
<!-- Generator: Adobe Illustrator 27.8.1, SVG Export Plug-In . SVG Version: 6.00 Build 0)  -->
<svg version="1.1" id="Layer_1" xmlns="http://www.w3.org/2000/svg" xmlns:xlink="http://www.w3.org/1999/xlink" x="0px" y="0px"
	 viewBox="0 0 127.68 127.68" style="enable-background:new 0 0 127.68 127.68;" xml:space="preserve">
<style type="text/css">
	.st0{fill:url(#SVGID_1_);stroke:#FFFFFF;stroke-width:4.5505;stroke-miterlimit:10;}
	.st1{fill:url(#SVGID_00000124873408929561697480000017606651445636282514_);stroke:#FFFFFF;stroke-width:2;stroke-miterlimit:10;}
	.st2{fill:#476F95;}
	.st3{fill:#FFFFFF;}
</style>
<g>
	<radialGradient id="SVGID_1_" cx="63.8407" cy="63.8407" r="61.5655" gradientUnits="userSpaceOnUse">
		<stop  offset="0.4089" style="stop-color:#FFFFFF"/>
		<stop  offset="0.4174" style="stop-color:#F5F7F8"/>
		<stop  offset="0.4592" style="stop-color:#DAE0E8"/>
		<stop  offset="0.5072" style="stop-color:#C5D0DC"/>
		<stop  offset="0.5633" style="stop-color:#B6C5D4"/>
		<stop  offset="0.6326" style="stop-color:#ABBDCE"/>
		<stop  offset="0.7299" style="stop-color:#A5B8CB"/>
		<stop  offset="1" style="stop-color:#A3B7CA"/>
	</radialGradient>
	<circle class="st0" cx="63.84" cy="63.84" r="61.57"/>
	
		<radialGradient id="SVGID_00000071517715953649905150000010619307057722613931_" cx="63.8407" cy="63.8407" r="41.6099" gradientUnits="userSpaceOnUse">
		<stop  offset="4.956410e-04" style="stop-color:#132B50"/>
		<stop  offset="0.4624" style="stop-color:#142D51"/>
		<stop  offset="0.6288" style="stop-color:#173256"/>
		<stop  offset="0.7474" style="stop-color:#1E3A5F"/>
		<stop  offset="0.8433" style="stop-color:#29476B"/>
		<stop  offset="0.9244" style="stop-color:#36587D"/>
		<stop  offset="0.9959" style="stop-color:#466E94"/>
		<stop  offset="1" style="stop-color:#476F95"/>
		<stop  offset="1" style="stop-color:#497096"/>
		<stop  offset="1" style="stop-color:#4F7398"/>
		<stop  offset="1" style="stop-color:#5A799D"/>
		<stop  offset="1" style="stop-color:#6882A3"/>
		<stop  offset="1" style="stop-color:#798EAD"/>
		<stop  offset="1" style="stop-color:#8F9FB9"/>
		<stop  offset="1" style="stop-color:#ABB5CA"/>
		<stop  offset="1" style="stop-color:#CDD2DE"/>
		<stop  offset="1" style="stop-color:#FAFAFB"/>
		<stop  offset="1" style="stop-color:#FFFFFF"/>
	</radialGradient>
	
		<circle style="fill:url(#SVGID_00000071517715953649905150000010619307057722613931_);stroke:#FFFFFF;stroke-width:2;stroke-miterlimit:10;" cx="63.84" cy="63.84" r="41.61"/>
	<g>
		<path class="st2" d="M22.18,83.91l-2.77,1.27l-3.04,4.39l-0.73-1.6l2.28-3.01l-0.02-0.04l-3.78-0.25l-0.73-1.6l5.33,0.59
			l2.77-1.27L22.18,83.91z"/>
		<path class="st2" d="M18.61,78.49l-3.1,0.79c-0.79,0.2-1.27-0.32-1.5-1.22l-0.68-2.64c-0.28-1.09,0.07-1.64,0.88-1.84l2.93-0.75
			c0.73-0.19,1.33,0.15,1.62,1.29l0.65,2.54C19.62,77.5,19.44,78.28,18.61,78.49z M17.68,74.32l-3.28,0.84l0.67,2.6l3.28-0.84
			L17.68,74.32z"/>
		<path class="st2" d="M17.53,63.59l0.09,1.53l-0.42,0.09c0.22,0.52,0.55,1.49,0.61,2.53c0.06,1.11-0.29,1.59-1.05,1.63l-4.48,0.25
			l-0.09-1.6l4.46-0.25l-0.14-2.5l-4.46,0.25l-0.09-1.61L17.53,63.59z"/>
		<path class="st2" d="M12.17,59.73l0.17-1.53l0.5-0.01c-0.14-0.35-0.4-1.31-0.27-2.4l1.17,0.27l-0.25,2.2l4.41,0.5l-0.18,1.59
			L12.17,59.73z"/>
		<path class="st2" d="M21.95,44.21l-1.9,4.47L13,45.7l1.9-4.47c0.4-0.95,0.94-1.15,1.7-0.83l1.6,0.68
			c0.33,0.14,0.52,0.37,0.54,0.71c0.31-0.33,0.66-0.38,1.13-0.19l1.57,0.67C22.04,42.51,22.38,43.18,21.95,44.21z M17.82,42.7
			l-1.96-0.83l-1.17,2.74l1.96,0.83L17.82,42.7z M20.88,43.83l-2.01-0.85l-1.23,2.89l2.02,0.85L20.88,43.83z"/>
		<path class="st2" d="M23.16,39.2l-2.54-1.76c-0.69-0.48-0.7-1.15-0.09-2.03l1.49-2.15c0.61-0.88,1.22-1.06,1.88-0.61l1.68,1.17
			l-2.41,3.47l1.05,0.73l1.51-2.18l-0.44-0.3l0.89-1.29l0.31,0.21c0.67,0.46,0.73,1.06,0.07,2.01l-1.44,2.08
			C24.5,39.45,23.85,39.69,23.16,39.2z M21.37,36.04l1.12,0.78L24,34.64l-1.12-0.78L21.37,36.04z"/>
		<path class="st2" d="M28.78,31.95l-0.37-0.38l1.11-1.09l0.41,0.42l1.74-1.7l-0.65-0.66l-2.79,1.63c-0.57,0.31-0.87,0.32-1.26-0.07
			l-0.58-0.59c-0.49-0.5-0.42-1.08,0.33-1.82l1.82-1.78c0.79-0.77,1.3-0.81,1.76-0.34l0.42,0.43l-1.11,1.09l-0.38-0.39l-1.74,1.7
			l0.59,0.61l2.75-1.61c0.68-0.38,0.89-0.36,1.33,0.08l0.61,0.62c0.43,0.44,0.4,1.08-0.36,1.81l-1.74,1.7
			C29.87,32.41,29.28,32.46,28.78,31.95z"/>
		<path class="st2" d="M35.29,25.92l-3.24-4.61l1.3-0.91l0.73,1.04l1.58-1.11l0.52,0.99l-1.46,1.03l1.94,2.76l1.5-1.06l0.63,0.9
			l-1.55,1.09C36.27,26.72,35.73,26.56,35.29,25.92z"/>
		<path class="st3" d="M46.96,19.6l-1.48-5.29l-0.56-0.8l6.15-1.71c0.53-0.15,0.99-0.12,1.41,0.02l1.14,0.42
			c0.44,0.16,0.7,0.42,0.79,0.73l0.32,1.15c0.1,0.35,0.03,0.74-0.28,1.09l-0.54,0.63l1.46,1.4l1.1,0.67l-4.05,1.12L52,18.23l-1-0.97
			l-1.1,0.31l0.31,1.12l0.55,0.8l-3.87,1.07L46.96,19.6z M50.65,15.43c0.51-0.14,0.81-0.48,0.72-0.81l-0.09-0.34
			c-0.09-0.33-0.52-0.47-1.03-0.32l-1.25,0.35l0.41,1.47L50.65,15.43z"/>
		<path class="st3" d="M61.49,17.17l-0.98-0.72c-0.36-0.27-0.54-0.62-0.53-0.99l0.07-4.33l-0.3-0.92l4.02,0.07l-0.33,0.91L63.37,15
			c-0.01,0.38,0.37,0.65,0.88,0.66l0.61,0.01c0.52,0.01,0.9-0.26,0.9-0.63l0.06-3.81l-0.32-0.92l4.05,0.07l-0.34,0.91l-0.07,4.33
			c-0.01,0.36-0.22,0.71-0.58,0.97l-1,0.69c-0.38,0.26-0.87,0.39-1.37,0.38l-3.34-0.06C62.3,17.59,61.83,17.43,61.49,17.17z"/>
		<path class="st3" d="M73.69,17.48l1.68-5.23l-0.03-0.97l2.69,0.86l2.56,4.33l0.74-2.31l-0.03-0.97l3.84,1.23l-0.59,0.77l-1.96,6.1
			l-2.39-0.77l-2.55-4.33l-0.74,2.31l0.02,0.97l-3.82-1.23L73.69,17.48z"/>
	</g>
	<g>
		<path class="st3" d="M39.98,110.74l1.32,0.78l2.79,1.14c0.48,0.2,0.74,0.23,0.78,0.13l0.03-0.08c0.03-0.07-0.03-0.13-0.2-0.26
			l-2.8-2.15c-0.72-0.55-1.04-1.34-0.82-1.89l0.28-0.67c0.15-0.36,0.46-0.6,0.89-0.68l0.96-0.18c0.46-0.09,0.98-0.03,1.44,0.16
			l4.6,1.89l-0.38,2.16l-1.32-0.78l-2.29-0.94c-0.46-0.19-0.72-0.22-0.77-0.11l-0.03,0.08c-0.02,0.05,0.04,0.14,0.21,0.28l2.82,2.13
			c0.72,0.55,1.02,1.28,0.78,1.87l-0.28,0.67c-0.14,0.34-0.47,0.6-0.89,0.68l-0.94,0.19c-0.46,0.09-0.99,0.02-1.44-0.16l-4.96-2.04
			L39.98,110.74z"/>
		<path class="st3" d="M51.7,116.14l0.86-4.31l-1.65-0.33l-1.24-0.02l0.9-2.1l8.06,1.6l0.03,2.28l-1.16-0.46l-1.63-0.32l-0.86,4.31
			l0.14,0.96l-3.94-0.78L51.7,116.14z"/>
		<path class="st3" d="M58.69,117.55l2.13-5.53l-0.16-0.89l5.91-0.1l-0.14,0.9l2.3,5.46l0.66,0.93l-4.19,0.07l0.16-0.91l-0.2-0.51
			l-2.9,0.05l-0.18,0.52l0.17,0.9l-4.17,0.07L58.69,117.55z M64.5,115.29l-0.85-2.22l-0.8,2.25L64.5,115.29z"/>
		<path class="st3" d="M71.51,117.13l-1.22-5.36l-0.52-0.82l6.22-1.42c0.54-0.12,1-0.07,1.4,0.09l1.12,0.47
			c0.43,0.18,0.68,0.45,0.75,0.77l0.26,1.16c0.08,0.36-0.01,0.74-0.33,1.08l-0.57,0.6l1.4,1.47l1.06,0.72l-4.1,0.93L76.6,116
			l-0.95-1.01l-1.12,0.25l0.26,1.14l0.51,0.83l-3.91,0.89L71.51,117.13z M75.39,113.14c0.52-0.12,0.83-0.44,0.76-0.78l-0.08-0.34
			c-0.08-0.33-0.5-0.49-1.02-0.37l-1.27,0.29l0.34,1.49L75.39,113.14z"/>
		<path class="st3" d="M84.71,113.31l-1.84-4l-1.52,0.7l-1.02,0.71l-0.51-2.23l7.47-3.44l1.36,1.83l-1.21,0.31l-1.51,0.7l1.84,4
			l0.68,0.7l-3.65,1.68L84.71,113.31z"/>
		<path class="st2" d="M91.03,109.98l-0.29-0.44l1.29-0.86l0.33,0.49l2.03-1.34l-0.51-0.77l-3.05,1.08
			c-0.62,0.2-0.92,0.15-1.22-0.31l-0.46-0.69c-0.38-0.58-0.21-1.14,0.66-1.72l2.12-1.4c0.92-0.61,1.42-0.55,1.79,0l0.33,0.5
			l-1.29,0.86l-0.3-0.45l-2.03,1.34l0.47,0.71l3.01-1.06c0.74-0.25,0.95-0.19,1.29,0.33l0.48,0.73c0.34,0.51,0.19,1.13-0.69,1.71
			l-2.03,1.34C92.02,110.64,91.43,110.58,91.03,109.98z"/>
		<path class="st2" d="M103.59,101.34l-1.17,1.11l-3.08-3.24l-1.82,1.73l3.08,3.24l-1.15,1.09l-5.44-5.71l1.15-1.09l1.9,1.99
			c0.25-0.51,0.76-1.41,1.51-2.12c0.82-0.78,1.4-0.8,1.96-0.22L103.59,101.34z"/>
		<path class="st2" d="M103.25,99.87l-2.39-1.96c-0.65-0.53-0.61-1.21,0.07-2.03l1.66-2.03c0.68-0.82,1.3-0.96,1.92-0.45l1.58,1.3
			l-2.68,3.26l0.99,0.81l1.68-2.05l-0.41-0.34l1-1.21l0.29,0.24c0.63,0.52,0.64,1.11-0.1,2.01l-1.6,1.95
			C104.58,100.22,103.91,100.4,103.25,99.87z M101.73,96.57l1.06,0.87l1.68-2.05l-1.05-0.87L101.73,96.57z"/>
		<path class="st2" d="M103.78,92.27l0.85-1.28l0.45,0.22c0.03-0.37,0.24-1.34,0.85-2.26l0.91,0.77l-1.22,1.84l3.7,2.45l-0.88,1.33
			L103.78,92.27z"/>
		<path class="st2" d="M109.78,91.08l-2.74-1.43c-0.74-0.39-0.84-1.06-0.34-2l1.21-2.32c0.5-0.95,1.08-1.21,1.79-0.83l1.81,0.95
			l-1.96,3.74l1.14,0.59l1.23-2.35l-0.47-0.25l0.73-1.39l0.33,0.17c0.72,0.38,0.85,0.96,0.31,1.99l-1.17,2.24
			C111.14,91.16,110.53,91.48,109.78,91.08z M107.61,88.17l1.21,0.63l1.23-2.35l-1.21-0.63L107.61,88.17z"/>
		<path class="st3" d="M109.1,82.71l-2.49-0.94l1.21-3.23l2.49,0.94l2.02,1.11l-0.99,2.64L109.1,82.71z M111.89,83.78l1.21-3.23
			l2.42,0.91l-1.22,3.23L111.89,83.78z"/>
	</g>
	<g>
		<path class="st2" d="M69.25,35.47v-3.01l-0.14-0.5h3.22l0.19,1.17L72.02,33h-1.38v0.46h1.15l0.37-0.08v1.16l-0.37-0.09h-1.15v0.48
			h1.43l0.61-0.12l-0.26,1.17h-3.3L69.25,35.47z"/>
		<path class="st2" d="M74.71,35.49l-0.94-3.01l-0.27-0.52h1.75l-0.06,0.5l0.59,2.21l0.58-2.21l-0.06-0.5h1.75l-0.26,0.52
			l-0.94,3.01l0.07,0.49h-2.27L74.71,35.49z"/>
		<path class="st2" d="M79.14,35.47v-3.01l-0.14-0.5h3.22l0.19,1.17L81.91,33h-1.38v0.46h1.15l0.37-0.08v1.16l-0.37-0.09h-1.15v0.48
			h1.43l0.61-0.12l-0.26,1.17h-3.3L79.14,35.47z"/>
		<path class="st2" d="M83.84,35.47v-3.01l-0.14-0.5h2.63c0.23,0,0.41,0.08,0.56,0.22l0.41,0.39c0.16,0.15,0.23,0.32,0.23,0.5v0.65
			c0,0.2-0.07,0.39-0.23,0.54l-0.28,0.25l0.43,0.96l0.36,0.52h-1.73l-0.08-0.48l-0.29-0.66h-0.47v0.64l0.13,0.5h-1.65L83.84,35.47z
			 M85.77,33.81c0.22,0,0.37-0.14,0.37-0.32V33.3c0-0.19-0.15-0.32-0.37-0.32h-0.54v0.84H85.77z"/>
	</g>
	<g>
		<g>
			<path class="st2" d="M65.9,56.96l1-3.49l-0.06-0.52h2.55l-0.06,0.52l1,3.49l0.26,0.52h-1.74l0.06-0.52l-0.08-0.33h-1.41
				l-0.08,0.33l0.06,0.52h-1.74L65.9,56.96z M68.54,55.57l-0.43-1.63l-0.43,1.63H68.54z"/>
			<path class="st2" d="M72.63,56.96v-0.75l-1.44-2.74l-0.32-0.52h1.79l-0.02,0.52l0.7,1.47l0.69-1.47l-0.02-0.52h1.79l-0.32,0.52
				l-1.43,2.72v0.76l0.13,0.52H72.5L72.63,56.96z"/>
		</g>
	</g>
	<g>
		<path class="st2" d="M63.48,80.42l-0.45-0.45c-0.15-0.15-0.24-0.35-0.24-0.57v-2c0-0.22,0.08-0.42,0.24-0.57l0.45-0.45
			c0.15-0.16,0.35-0.24,0.57-0.24h1.61c0.22,0,0.42,0.08,0.57,0.24l0.45,0.45c0.15,0.16,0.24,0.36,0.24,0.57v2
			c0,0.22-0.08,0.42-0.24,0.57l-0.45,0.45c-0.15,0.16-0.35,0.24-0.57,0.24h-1.61C63.84,80.66,63.64,80.58,63.48,80.42z M65.05,79.53
			c0.26,0,0.46-0.19,0.46-0.46v-1.34c0-0.26-0.19-0.46-0.46-0.46h-0.37c-0.26,0-0.46,0.19-0.46,0.46v1.34
			c0,0.26,0.19,0.46,0.46,0.46H65.05z"/>
		<path class="st2" d="M68.3,80.15v-3.49l-0.13-0.52h2.81c0.22,0,0.42,0.08,0.57,0.24L72,76.83c0.15,0.15,0.24,0.34,0.24,0.54v0.75
			c0,0.22-0.08,0.43-0.24,0.57l-0.34,0.32l0.48,1.13l0.35,0.52h-1.75l-0.08-0.52l-0.34-0.79h-0.59v0.8l0.13,0.52h-1.68L68.3,80.15z
			 M70.36,78.28c0.26,0,0.46-0.18,0.46-0.43v-0.22c0-0.25-0.19-0.43-0.46-0.43h-0.64v1.07H70.36z"/>
		<path class="st2" d="M73.74,80.15v-3.49l-0.13-0.52h3.41l0.19,1.23l-0.48-0.13h-1.57v0.63h1.31l0.35-0.08v1.2l-0.35-0.08h-1.31
			v0.66h1.61l0.61-0.13l-0.26,1.23h-3.51L73.74,80.15z"/>
	</g>
	<g>
		<g>
			<polygon class="st3" points="58.69,37.18 57.09,34.68 45.85,34.99 45.55,36.81 			"/>
			<polygon class="st3" points="46.34,31.99 46.04,33.81 56.72,34.11 55.21,31.75 			"/>
			<polygon class="st3" points="44.38,44 44.08,45.82 50.95,46.01 51.31,43.8 			"/>
			<polygon class="st3" points="60.35,28.62 60.43,29.63 60.18,31.19 67.05,31.39 67.34,29.63 67.84,28.41 			"/>
			<polygon class="st3" points="52.79,27.97 52.25,27.12 46.51,27.12 46.57,27.8 			"/>
			<polygon class="st3" points="43.78,47 43.03,48.8 51.07,49.03 50.88,46.8 			"/>
			<polygon class="st3" points="57.47,46.62 59.04,49.08 64.16,49.08 64.59,46.42 			"/>
			<polygon class="st3" points="44.87,41 44.57,42.82 51.44,43.01 51.8,40.8 			"/>
			<polygon class="st3" points="60.11,31.61 59.69,34.19 66.56,34.39 67.04,31.42 			"/>
			<polygon class="st3" points="46.67,29 46.72,29.63 46.53,30.81 54.76,31.04 53.33,28.81 			"/>
			<polygon class="st3" points="60.31,28.18 67.85,28.39 68.37,27.12 60.22,27.12 			"/>
			<polygon class="st3" points="55.59,43.69 57.19,46.18 64.6,46.39 65.08,43.42 			"/>
			<polygon class="st3" points="53.71,40.75 55.22,43.11 65.09,43.39 65.57,40.42 			"/>
			<polygon class="st3" points="59.62,34.61 59.2,37.2 66.07,37.39 66.55,34.42 			"/>
			<polygon class="st3" points="59.13,37.61 59.1,37.82 58.97,37.62 45.36,37.99 45.06,39.82 51.93,40.01 52.2,38.38 53.26,40.04 
				65.58,40.39 66.06,37.42 			"/>
		</g>
		<g>
			<path class="st3" d="M41.5,62l-0.3,1.83l18.34,0.51l1.87-1.46c0.54-0.42,0.96-0.92,1.26-1.46L41.5,62z"/>
			<path class="st3" d="M62.54,52.36l-1.55-1.63c-0.72-0.75-1.74-1.16-2.93-1.16H42.84l0.26,2.25L62.54,52.36z"/>
			<path class="st3" d="M41.01,65l-0.3,1.83l7.67,0.21l0.14-0.84h6.82c1.19,0,2.34-0.41,3.3-1.16l0.7-0.54L41.01,65z"/>
			<polygon class="st3" points="50.22,55.78 42.49,56 42.19,57.82 49.85,58.04 			"/>
			<path class="st3" d="M63.05,52.9l-0.42-0.44L42.98,53l-0.3,1.83l8.59,0.24h2.53c0.25,0,0.47,0.04,0.68,0.09l9.26,0.26l-8.33,0.23
				c0.42,0.4,0.62,0.97,0.51,1.65l-0.15,0.91l7.48,0.21l-7.56,0.21c-0.27,1.21-1.43,2.09-2.81,2.09h-3.46l0.31-1.92L41.99,59
				l-0.3,1.83l20.99,0.59c0.24-0.42,0.41-0.86,0.49-1.33l0.72-4.39C64.06,54.62,63.77,53.65,63.05,52.9z"/>
			<polygon class="st3" points="48.17,70.05 48.06,69.02 48.26,67.79 40.52,68 40.36,69.02 40,69.82 			"/>
			<polygon class="st3" points="39.47,71.02 39.25,71.53 48.35,71.53 48.26,70.77 			"/>
		</g>
		<g>
			<polygon class="st3" points="45.26,85.79 46.08,88.08 48.99,88.16 50.72,85.64 			"/>
			<polygon class="st3" points="47.8,89.9 48.63,88.69 46.32,88.75 46.73,89.9 			"/>
			<polygon class="st3" points="37.6,84.82 43.29,84.98 43.64,82.85 37.9,83.01 			"/>
			<polygon class="st3" points="44.21,82.83 44.99,85.03 51.02,85.2 52.8,82.6 			"/>
			<polygon class="st3" points="36.92,89.01 36.62,90.83 42.31,90.98 42.66,88.85 			"/>
			<polygon class="st3" points="51.83,91.25 57.51,91.41 58,88.43 52.26,88.59 			"/>
			<polygon class="st3" points="42.8,87.98 43.15,85.85 37.41,86.01 37.11,87.83 			"/>
			<polygon class="st3" points="60.69,73.41 61.22,72.02 54.23,72.02 53.47,73.21 			"/>
			<polygon class="st3" points="35.64,93.81 41.72,93.98 42.35,93.98 42.25,91.85 36.31,92.01 			"/>
			<polygon class="st3" points="48.33,79.1 47.61,76.77 38.88,77.01 38.58,78.82 			"/>
			<polygon class="st3" points="46.46,73.01 46.15,72.02 39.16,72.02 39.2,72.81 			"/>
			<polygon class="st3" points="51.59,76.17 59.97,76.41 60.27,74.53 60.69,73.42 53.21,73.62 			"/>
			<polygon class="st3" points="52.32,88.25 58,88.41 58.49,85.43 52.75,85.59 			"/>
			<polygon class="st3" points="49.71,79.13 59.48,79.41 59.96,76.42 51.28,76.66 			"/>
			<polygon class="st3" points="57.51,91.43 51.75,91.59 50.85,93.98 57.62,93.98 57.5,91.47 			"/>
			<polygon class="st3" points="52.81,85.25 58.5,85.41 58.98,82.43 53.25,82.58 			"/>
			<polygon class="st3" points="48.79,80.59 48.52,79.73 38.39,80.01 38.09,81.82 43.78,81.98 43.82,81.75 43.9,81.99 53.04,82.24 
				53.38,81.75 53.3,82.25 58.99,82.41 59.47,79.43 49.35,79.71 			"/>
			<polygon class="st3" points="39.26,74.01 39.29,74.53 39.07,75.82 47.39,76.05 46.7,73.8 			"/>
		</g>
	</g>
	<g>
		<path class="st3" d="M61.46,100.79l0.08-3.75l2.45,0.05c0.49,0.01,0.68,0.21,0.67,0.62l-0.03,1.4c-0.01,0.31-0.16,0.48-0.51,0.51
			l0.53,1.23l-0.81-0.02l-0.51-1.21l-1.02-0.02l-0.02,1.19L61.46,100.79z M63.83,99.1l0.03-1.43l-1.52-0.03l-0.03,1.43L63.83,99.1z"
			/>
		<path class="st3" d="M68.49,100.57l-0.75,0.07l-0.05-0.2c-0.25,0.11-0.72,0.29-1.23,0.34c-0.54,0.05-0.78-0.12-0.81-0.49
			l-0.19-2.19l0.78-0.07l0.19,2.18l1.23-0.11l-0.19-2.18l0.79-0.07L68.49,100.57z"/>
		<path class="st3" d="M69.12,97.73l0.73-0.14l0.08,0.21c0.24-0.15,0.68-0.38,1.18-0.48c0.54-0.11,0.79,0.04,0.87,0.42l0.42,2.13
			l-0.78,0.15l-0.42-2.15L70,98.11l0.42,2.15l-0.77,0.15L69.12,97.73z"/>
		<path class="st3" d="M72.7,96.98l0.71-0.22l0.1,0.2c0.23-0.17,0.64-0.45,1.12-0.6c0.53-0.17,0.79-0.05,0.91,0.33l0.64,2.08
			l-0.76,0.24l-0.65-2.09l-1.17,0.37l0.65,2.09l-0.75,0.23L72.7,96.98z"/>
		<path class="st3" d="M75.96,94.95l0.73-0.3l0.2,0.5l-0.73,0.3L75.96,94.95z M76.3,95.77l0.73-0.3l1.03,2.53l-0.73,0.3L76.3,95.77z
			"/>
		<path class="st3" d="M77.96,95.11l0.67-0.33l0.13,0.18c0.2-0.21,0.56-0.55,1.01-0.78c0.49-0.25,0.77-0.17,0.95,0.17l0.98,1.94
			l-0.71,0.36L80,94.69l-1.1,0.55l0.99,1.95l-0.7,0.35L77.96,95.11z"/>
		<path class="st3" d="M83.43,95.72l1.23-0.79l-0.33-0.51c-0.03,0.06-0.36,0.49-0.89,0.83c-0.54,0.35-0.88,0.3-1.08,0.01l-0.88-1.35
			c-0.2-0.3-0.1-0.63,0.45-0.98c0.41-0.27,0.92-0.43,1.12-0.46l-0.08-0.19l0.63-0.41l1.68,2.6c0.19,0.3,0.17,0.56-0.27,0.84
			l-1.36,0.88L83.43,95.72z M84.15,94.14l-0.9-1.39l-1.11,0.72l0.9,1.39L84.15,94.14z"/>
		<path class="st3" d="M89.62,89.52c0.27,0.29,0.25,0.65-0.13,1l-1.19,1.09c-0.31,0.29-0.68,0.37-0.97,0.06l-0.43-0.46l0.59-0.54
			l0.46,0.5l1.13-1.05l-0.55-0.59l-1.86,0.86c-0.28,0.12-0.45,0.09-0.62-0.1l-0.5-0.54c-0.25-0.28-0.17-0.56,0.17-0.87l1.25-1.15
			c0.41-0.38,0.68-0.34,0.98-0.01l0.36,0.39l-0.59,0.54l-0.42-0.46l-1.13,1.05l0.48,0.52l1.88-0.88c0.27-0.11,0.42-0.08,0.61,0.12
			L89.62,89.52z"/>
		<path class="st3" d="M92.7,87.04l-0.52,0.6l-1.65-1.44l-0.81,0.93l1.65,1.44l-0.51,0.59l-2.91-2.54l0.51-0.59l1.02,0.89
			c0.1-0.26,0.31-0.72,0.64-1.1c0.36-0.42,0.65-0.46,0.94-0.2L92.7,87.04z"/>
		<path class="st3" d="M92.89,85.81l-1.29-0.9c-0.33-0.23-0.29-0.58-0.03-0.95l0.76-1.1c0.32-0.45,0.63-0.5,0.96-0.26l1.22,0.85
			c0.3,0.21,0.37,0.54,0.04,1.01l-0.73,1.05C93.58,85.87,93.24,86.05,92.89,85.81z M94.15,84.14l-1.36-0.95l-0.75,1.08l1.36,0.95
			L94.15,84.14z"/>
		<path class="st3" d="M95.08,82.57l-1.33-0.73c-0.36-0.2-0.4-0.53-0.15-0.99l0.62-1.12c0.25-0.46,0.54-0.58,0.88-0.39l0.88,0.48
			l-0.99,1.81l0.55,0.3l0.62-1.14l-0.23-0.12L96.3,80l0.16,0.09c0.35,0.19,0.41,0.48,0.13,0.98L96,82.15
			C95.74,82.62,95.44,82.77,95.08,82.57z M94.04,81.12l0.59,0.32l0.62-1.14l-0.59-0.32L94.04,81.12z"/>
		<path class="st3" d="M96.94,79.21l-0.24-0.1l0.29-0.7l0.27,0.11l0.46-1.1l-0.42-0.18l-0.95,1.27c-0.2,0.25-0.33,0.31-0.58,0.21
			l-0.37-0.16c-0.31-0.13-0.4-0.41-0.2-0.88l0.48-1.15c0.21-0.5,0.43-0.61,0.73-0.49l0.27,0.11l-0.29,0.7l-0.24-0.1l-0.46,1.1
			l0.38,0.16l0.94-1.25c0.23-0.3,0.33-0.33,0.62-0.22l0.39,0.17c0.28,0.12,0.38,0.41,0.18,0.88l-0.46,1.1
			C97.52,79.21,97.27,79.35,96.94,79.21z"/>
	</g>
</g>
</svg>
